<svg width="24" height="24" viewBox="0 0 24 24" fill="none" xmlns="http://www.w3.org/2000/svg">
<g clip-path="url(#clip0_29_71349)">
<path d="M7.99986 19.8619H0.41366C0.185144 19.8619 -0.000152588 19.6766 -0.000152588 19.4481V4.55163C-0.000152588 4.32311 0.185144 4.13782 0.41366 4.13782H7.99986V19.8619Z" fill="#F5F5F5"/>
<path d="M16.0002 4.13794H8V19.8622H16.0002V4.13794Z" fill="#4173CD"/>
<path d="M23.586 19.8619H15.9998V4.13782H23.586C23.8145 4.13782 23.9998 4.32311 23.9998 4.55163V19.4481C23.9998 19.6767 23.8145 19.8619 23.586 19.8619Z" fill="#FFE15A"/>
<path d="M10.7509 12.4589C10.7461 12.5825 10.5608 12.6347 10.5608 12.6347C10.5418 12.4257 10.7557 12.0408 10.7984 12.0076C10.8412 11.9743 11.0122 11.8175 10.8412 11.8507C10.6701 11.884 10.5038 12.2688 10.4658 12.3353C10.4277 12.4019 10.3375 12.3971 10.3375 12.3971C10.3375 12.3971 10.3375 12.0883 10.3375 12.0218C10.3375 11.9552 10.6321 11.8127 10.6321 11.8127C10.6321 11.8127 10.6796 11.5276 10.6369 11.4991C10.5941 11.4706 10.5038 11.5514 10.3755 11.5609C10.2472 11.5704 10.0904 11.5752 9.95735 11.6987C9.82432 11.8223 9.81954 11.9078 9.81954 12.1168C9.81954 12.3259 9.81954 12.1168 9.81954 12.6205C9.81954 13.1242 9.3491 13.4758 9.17332 13.6516C9.12546 13.6995 9.10714 13.758 9.10554 13.8194C9.0702 13.8525 8.99224 13.9007 8.92714 13.8868C8.82706 13.8653 8.81215 13.6893 8.81215 13.5863C8.81215 13.5548 8.78665 13.5293 8.75515 13.5293C8.72365 13.5293 8.69815 13.5548 8.69815 13.5863C8.69815 13.9347 8.84646 13.9967 8.93478 14.0027C8.93965 14.0031 8.94448 14.0032 8.94945 14.0032C9.00799 14.0032 9.07095 13.9801 9.12317 13.9478C9.15715 14.0708 9.22873 14.1852 9.24926 14.2313C9.28728 14.3169 9.07821 14.4547 9.07821 14.4547L9.24926 14.9821H9.48213C9.48213 14.8515 9.32299 14.8776 9.29918 14.8443C9.27546 14.8111 9.24696 14.5093 9.24696 14.5093L9.57734 14.2329C9.60284 14.2116 9.61756 14.18 9.61756 14.1468V13.9997C9.61756 13.9997 9.8599 14.0389 9.92051 14.0923C9.98107 14.1458 9.92763 14.3062 9.92763 14.3275C9.92763 14.3489 10.2341 14.6197 10.2341 14.6197H10.4444C10.4444 14.5235 10.3446 14.5271 10.2947 14.5092C10.2448 14.4914 10.0952 14.3061 10.0952 14.3061C10.0952 14.3061 10.176 14.0555 10.176 13.9937C10.176 13.9319 9.8291 13.6801 9.8291 13.6801C9.8291 13.6801 9.87663 13.5993 10.2282 13.3807C10.5799 13.1621 10.5514 12.9151 10.5514 12.9151L10.8555 12.573V12.3259C10.8554 12.3258 10.7556 12.3353 10.7509 12.4589Z" fill="#C17400"/>
<path d="M13.2575 12.459C13.2623 12.5826 13.4476 12.6349 13.4476 12.6349C13.4666 12.4258 13.2527 12.0409 13.21 12.0077C13.1672 11.9744 12.9962 11.8176 13.1672 11.8508C13.3383 11.8841 13.5046 12.269 13.5426 12.3355C13.5806 12.402 13.6709 12.3973 13.6709 12.3973C13.6709 12.3973 13.6709 12.0884 13.6709 12.0219C13.6709 11.9554 13.3763 11.8128 13.3763 11.8128C13.3763 11.8128 13.3288 11.5277 13.3715 11.4992C13.4143 11.4707 13.5046 11.5515 13.6329 11.561C13.7612 11.5705 13.918 11.5753 14.051 11.6988C14.1841 11.8224 14.1888 11.9079 14.1888 12.1169C14.1888 12.326 14.1888 12.1169 14.1888 12.6206C14.1888 13.1243 14.6593 13.4759 14.8351 13.6517C14.8829 13.6996 14.9013 13.7581 14.9028 13.8195C14.9381 13.8526 15.0161 13.9009 15.0812 13.8869C15.1813 13.8654 15.1962 13.6894 15.1962 13.5864C15.1962 13.5549 15.2217 13.5294 15.2532 13.5294C15.2847 13.5294 15.3102 13.5549 15.3102 13.5864C15.3102 13.9348 15.1619 13.9968 15.0736 14.0029C15.0687 14.0032 15.0639 14.0033 15.0589 14.0033C15.0003 14.0033 14.9374 13.9802 14.8852 13.948C14.8512 14.071 14.7796 14.1853 14.7591 14.2315C14.7211 14.317 14.9301 14.4548 14.9301 14.4548L14.7591 14.9823H14.5262C14.5262 14.8516 14.6854 14.8777 14.7092 14.8445C14.7329 14.8112 14.7614 14.5094 14.7614 14.5094L14.431 14.233C14.4055 14.2117 14.3908 14.1801 14.3908 14.1469V13.9998C14.3908 13.9998 14.1484 14.039 14.0878 14.0924C14.0273 14.1459 14.0807 14.3063 14.0807 14.3276C14.0807 14.3489 13.7742 14.6198 13.7742 14.6198H13.564C13.564 14.5236 13.6638 14.5272 13.7136 14.5093C13.7636 14.4915 13.9132 14.3062 13.9132 14.3062C13.9132 14.3062 13.8324 14.0556 13.8324 13.9938C13.8324 13.932 14.1792 13.6802 14.1792 13.6802C14.1792 13.6802 14.1317 13.5994 13.7801 13.3808C13.4285 13.1623 13.457 12.9152 13.457 12.9152L13.1529 12.5731V12.326C13.153 12.326 13.2527 12.3355 13.2575 12.459Z" fill="#C17400"/>
<path d="M11.5462 12.1335L11.2041 12.4756H11.8884L11.5462 12.1335Z" fill="#C8C8C8"/>
<path d="M12.4583 12.1335L12.1162 12.4756H12.8004L12.4583 12.1335Z" fill="#C8C8C8"/>
<path d="M11.5462 12.7037L11.2041 13.0458H11.8884L11.5462 12.7037Z" fill="#C8C8C8"/>
<path d="M12.4583 12.7039L12.1162 13.046H12.8004L12.4583 12.7039Z" fill="#C8C8C8"/>
<path d="M11.5462 13.2739L11.2041 13.616H11.8884L11.5462 13.2739Z" fill="#C8C8C8"/>
<path d="M12.4583 13.2739L12.1162 13.616H12.8004L12.4583 13.2739Z" fill="#C8C8C8"/>
<path d="M12.0025 13.8441L11.6603 14.1862H12.3446L12.0025 13.8441Z" fill="#C8C8C8"/>
<path d="M12.0592 10.3091H11.9454V10.9933H12.0592V10.3091Z" fill="#FFE15A"/>
<path d="M11.3771 11.0068C11.3751 10.9994 11.3331 10.8244 11.4511 10.6968C11.555 10.5843 11.7439 10.55 12.0119 10.5947L11.9932 10.7072C11.7683 10.6695 11.6099 10.6928 11.5349 10.7741C11.4595 10.8557 11.4874 10.978 11.4877 10.9792L11.3771 11.0068Z" fill="#FFE15A"/>
<path d="M11.065 11.3861C10.9225 11.3148 10.8524 11.1079 10.912 10.9342C10.937 10.8613 11.0493 10.63 11.4438 10.709L11.4214 10.8208C11.213 10.7788 11.067 10.834 11.0199 10.9712C10.9793 11.0896 11.0251 11.2387 11.116 11.2841L11.065 11.3861Z" fill="#FFE15A"/>
<path d="M12.628 11.0069L12.5175 10.9793L12.5728 10.9931L12.5174 10.9795C12.5177 10.9783 12.546 10.8553 12.4696 10.7735C12.3943 10.6926 12.236 10.6697 12.012 10.7072L11.9933 10.5947C12.2617 10.5499 12.4503 10.5844 12.5541 10.6968C12.672 10.8244 12.6299 10.9995 12.628 11.0069Z" fill="#FFE15A"/>
<path d="M12.9406 11.3861L12.8896 11.2841C12.9805 11.2387 13.0263 11.0895 12.9857 10.9712C12.9386 10.8341 12.7923 10.779 12.5842 10.8208L12.5618 10.709C12.9566 10.63 13.0686 10.8614 13.0936 10.9341C13.1532 11.1079 13.0831 11.3148 12.9406 11.3861Z" fill="#FFE15A"/>
<path d="M12.4592 10.993C12.4592 10.993 12.2311 10.8789 12.003 10.8789C11.775 10.8789 11.5469 10.993 11.5469 10.993C11.3188 10.8789 10.9767 10.993 10.9767 11.221C10.9767 11.4491 11.3188 11.7912 11.3188 11.7912H12.0031H12.6873C12.6873 11.7912 13.0294 11.4491 13.0294 11.221C13.0294 10.993 12.6873 10.8789 12.4592 10.993Z" fill="#FF4B55"/>
<path d="M12.1177 10.3657H11.8896V10.4798H12.1177V10.3657Z" fill="#FFE15A"/>
<path d="M13.1432 9.73865H10.8622V10.1948H13.1432V9.73865Z" fill="#C8C8C8"/>
<path d="M11.1452 10.3562L11.0371 10.0317L10.3529 10.2597L10.461 10.5842L11.1452 10.3562Z" fill="#C8C8C8"/>
<path d="M13.654 10.2605L12.9697 10.0325L12.8616 10.357L13.5458 10.585L13.654 10.2605Z" fill="#C8C8C8"/>
<path d="M12.003 14.5854C11.3427 14.5854 10.8055 14.2528 10.8055 13.8441V11.9054C10.8055 11.8111 10.8822 11.7344 10.9766 11.7344H13.0293C13.1237 11.7344 13.2004 11.8111 13.2004 11.9054V13.8441C13.2004 14.2528 12.6632 14.5854 12.003 14.5854ZM10.9766 11.8484C10.9451 11.8484 10.9196 11.874 10.9196 11.9054V13.8441C10.9196 14.1899 11.4056 14.4713 12.003 14.4713C12.6004 14.4713 13.0864 14.1898 13.0864 13.8441V11.9054C13.0864 11.874 13.0609 11.8484 13.0294 11.8484H10.9766Z" fill="#464655"/>
</g>
<defs>
<clipPath id="clip0_29_71349">
<rect width="24" height="24" fill="white"/>
</clipPath>
</defs>
</svg>
