<svg width="24" height="24" viewBox="0 0 24 24" fill="none" xmlns="http://www.w3.org/2000/svg">
<g clip-path="url(#clip0_29_72405)">
<path d="M23.5859 19.8621H0.413568C0.185052 19.8621 -0.000244141 19.6768 -0.000244141 19.4483V4.55175C-0.000244141 4.32324 0.185052 4.13794 0.413568 4.13794H23.5859C23.8145 4.13794 23.9998 4.32324 23.9998 4.55175V19.4483C23.9997 19.6768 23.8144 19.8621 23.5859 19.8621Z" fill="#41479B"/>
<path d="M23.9997 9.93115H10.7583V4.13806H6.62042V9.93115H-0.000244141V14.0691H6.62042V19.8622H10.7583V14.0691H23.9997V9.93115Z" fill="#F5F5F5"/>
<path d="M23.9997 10.7587H9.93077V4.13806H7.44804V10.7587H-0.000244141V13.2415H7.44804V19.8622H9.93077V13.2415H23.9997V10.7587Z" fill="#FF4B55"/>
</g>
<defs>
<clipPath id="clip0_29_72405">
<rect width="24" height="24" fill="white"/>
</clipPath>
</defs>
</svg>
