<svg width="24" height="24" viewBox="0 0 24 24" fill="none" xmlns="http://www.w3.org/2000/svg">
<g clip-path="url(#clip0_29_73435)">
<path d="M0.152625 19.7623L12 12.0003L0.152625 4.23828C0.0614531 4.31417 0 4.42414 0 4.55202V19.4486C0 19.5765 0.0614531 19.6865 0.152625 19.7623Z" fill="#F5F5F5"/>
<path d="M0.164062 19.762C0.235781 19.8217 0.324609 19.8621 0.425203 19.8621H23.5976C23.8261 19.8621 24.0114 19.6768 24.0114 19.4482V12H12.0114L0.164062 19.762Z" fill="#FF4B55"/>
<path d="M0.140625 4.23821C0.212344 4.1785 0.301172 4.13818 0.401766 4.13818H23.5742C23.8027 4.13818 23.988 4.32348 23.988 4.552V12.0002H11.988L0.140625 4.23821Z" fill="#41479B"/>
<path d="M4.34484 13.345C5.08758 13.345 5.68969 12.7429 5.68969 12.0001C5.68969 11.2574 5.08758 10.6553 4.34484 10.6553C3.60211 10.6553 3 11.2574 3 12.0001C3 12.7429 3.60211 13.345 4.34484 13.345Z" fill="#FFE15A"/>
<path d="M4.35308 11.9997L3.84875 9.98248L4.35308 9.31006L4.85736 9.98248L4.35308 11.9997Z" fill="#FFE15A"/>
<path d="M4.35308 11.9995L4.85736 14.0167L4.35308 14.6892L3.84875 14.0167L4.35308 11.9995Z" fill="#FFE15A"/>
<path d="M4.35302 11.9999L2.33575 12.5043L1.66333 11.9999L2.33575 11.4956L4.35302 11.9999Z" fill="#FFE15A"/>
<path d="M4.35938 12.0004L6.37659 11.4961L7.04902 12.0004L6.37659 12.5048L4.35938 12.0004Z" fill="#FFE15A"/>
<path d="M4.35938 12.0005L5.42916 10.2176L6.26124 10.0986L6.14236 10.9307L4.35938 12.0005Z" fill="#FFE15A"/>
<path d="M4.36284 12L3.29302 13.783L2.46094 13.9019L2.57986 13.0698L4.36284 12Z" fill="#FFE15A"/>
<path d="M4.36284 12.0005L2.57986 10.9307L2.46094 10.0986L3.29302 10.2176L4.36284 12.0005Z" fill="#FFE15A"/>
<path d="M4.35938 12L6.14236 13.0698L6.26124 13.9019L5.42916 13.783L4.35938 12Z" fill="#FFE15A"/>
<path d="M1.11711 6.1731L1.18724 6.69623L0.714927 6.93192C0.653802 6.96243 0.666645 7.05323 0.733911 7.06551L1.2531 7.16048L1.33129 7.68248C1.34141 7.75007 1.43174 7.76587 1.46422 7.70568L1.715 7.24125L2.2356 7.32815C2.303 7.33945 2.34594 7.25836 2.29879 7.20895L1.93457 6.82692L2.17808 6.35864C2.20963 6.29803 2.14579 6.23212 2.08419 6.2617L1.60832 6.49007L1.23824 6.11371C1.19043 6.06506 1.10807 6.10542 1.11711 6.1731Z" fill="#FFE15A"/>
<path d="M1.32556 16.3547L1.23697 16.875L0.715999 16.9596C0.648546 16.9706 0.633874 17.0611 0.69439 17.0928L1.16187 17.3378L1.08139 17.8594C1.07098 17.927 1.1525 17.9689 1.20139 17.9211L1.57887 17.5522L2.05016 17.79C2.11119 17.8208 2.17625 17.7562 2.14597 17.695L1.91178 17.2219L2.2835 16.8473C2.33159 16.7988 2.29034 16.7169 2.22266 16.7268L1.70037 16.8033L1.45887 16.334C1.42761 16.2733 1.33695 16.2873 1.32556 16.3547Z" fill="#FFE15A"/>
<path d="M9.50341 11.2291L9.19962 11.6607L8.6929 11.513C8.62732 11.4939 8.5751 11.5693 8.61607 11.624L8.93271 12.0463L8.63566 12.4826C8.59722 12.5391 8.65277 12.612 8.71746 12.5899L9.21691 12.4193L9.54007 12.8366C9.58193 12.8907 9.66846 12.8603 9.66743 12.792L9.65946 12.2643L10.1562 12.0859C10.2206 12.0628 10.2184 11.9711 10.1531 11.951L9.64872 11.7954L9.6326 11.2679C9.63063 11.1995 9.54274 11.1731 9.50341 11.2291Z" fill="#FFE15A"/>
</g>
<defs>
<clipPath id="clip0_29_73435">
<rect width="24" height="24" fill="white"/>
</clipPath>
</defs>
</svg>
