<svg width="24" height="24" viewBox="0 0 24 24" fill="none" xmlns="http://www.w3.org/2000/svg">
<path d="M24 11.9999H0V4.55163C0 4.32311 0.185297 4.13782 0.413812 4.13782H23.5862C23.8147 4.13782 24 4.32311 24 4.55163L24 11.9999Z" fill="#F5F5F5"/>
<path d="M0 11.9999H24V19.4482C24 19.6767 23.8147 19.862 23.5861 19.862H0.413812C0.185297 19.862 0 19.6767 0 19.4482V11.9999Z" fill="#82AFFF"/>
<path d="M12.0389 15.3743C11.9689 15.3712 10.3144 15.2866 9.48403 14.149C9.00009 13.4861 8.90353 12.6043 9.19701 11.5283L9.31556 11.5607C9.03253 12.5986 9.12243 13.4448 9.58293 14.0761C10.3778 15.1659 12.0276 15.2508 12.0443 15.2515L12.0389 15.3743Z" fill="#B46446"/>
<path d="M9.19502 11.0505C9.11345 11.263 9.13206 11.4855 9.22652 11.6542C9.40961 11.5921 9.57231 11.4392 9.65392 11.2267C9.73548 11.0142 9.71687 10.7917 9.62242 10.623C9.43928 10.6852 9.27658 10.838 9.19502 11.0505Z" fill="#41AA5A"/>
<path d="M10.2316 13.9881C10.1411 14.1375 10.1173 14.3378 10.1844 14.5322C10.247 14.7139 10.3763 14.8479 10.5261 14.9156C10.3806 14.8393 10.1955 14.8202 10.0138 14.8828C9.81935 14.9499 9.67629 15.092 9.61441 15.2554C9.7638 15.3459 9.96405 15.3697 10.1585 15.3026C10.353 15.2356 10.496 15.0934 10.5579 14.9301L10.5577 14.93C10.6475 14.7808 10.6711 14.5813 10.6042 14.3875C10.5371 14.193 10.395 14.0499 10.2316 13.9881Z" fill="#41AA5A"/>
<path d="M9.8772 13.4463C9.73751 13.5511 9.64076 13.7281 9.6305 13.9336C9.62089 14.1255 9.69087 14.2981 9.80464 14.4166C9.698 14.2916 9.53333 14.2048 9.34152 14.1952C9.13611 14.1849 8.95034 14.2635 8.83203 14.392C8.93689 14.5317 9.11389 14.6285 9.31925 14.6387C9.52466 14.6491 9.71042 14.5704 9.82873 14.4419C9.82869 14.4419 9.82864 14.4418 9.82864 14.4418C9.96753 14.3368 10.0637 14.1604 10.074 13.9557C10.0843 13.7503 10.0057 13.5645 9.8772 13.4463Z" fill="#41AA5A"/>
<path d="M9.72338 12.835C9.55445 12.8794 9.39803 13.0068 9.31103 13.193C9.22965 13.3672 9.22937 13.5534 9.28998 13.7061C9.23842 13.5501 9.1187 13.4076 8.94461 13.3263C8.75823 13.2392 8.55657 13.2418 8.39856 13.3162C8.44295 13.4852 8.57036 13.6416 8.75664 13.7286C8.94301 13.8156 9.14467 13.813 9.30268 13.7386C9.30268 13.7386 9.30264 13.7385 9.30259 13.7384C9.47092 13.6936 9.62654 13.5666 9.71326 13.381C9.8004 13.1948 9.79782 12.993 9.72338 12.835Z" fill="#41AA5A"/>
<path d="M9.81087 12.2282C9.63701 12.2109 9.44604 12.2759 9.29955 12.4202C9.16263 12.5551 9.09743 12.7295 9.10104 12.8938C9.10709 12.7296 9.04451 12.5543 8.90965 12.4174C8.76528 12.2709 8.57534 12.2031 8.40129 12.2178C8.384 12.3916 8.44892 12.5825 8.59329 12.7291C8.73767 12.8757 8.9276 12.9434 9.10165 12.9287C9.10165 12.9287 9.10165 12.9286 9.10165 12.9285C9.27504 12.9451 9.46516 12.8804 9.61118 12.7365C9.75776 12.5922 9.82554 12.4022 9.81087 12.2282Z" fill="#41AA5A"/>
<path d="M9.93368 11.6507C9.76511 11.6049 9.56604 11.6373 9.39766 11.7554C9.2403 11.8658 9.14716 12.027 9.12354 12.1897C9.15668 12.0287 9.12396 11.8456 9.01366 11.6882C8.89558 11.5199 8.71948 11.4216 8.54534 11.4072C8.49949 11.5758 8.53198 11.7749 8.65005 11.9432C8.76813 12.1116 8.94424 12.2099 9.11838 12.2243C9.11838 12.2242 9.11838 12.2241 9.11838 12.2241C9.28657 12.2692 9.48485 12.2367 9.65266 12.119C9.82104 12.0009 9.91933 11.8248 9.93368 11.6507Z" fill="#41AA5A"/>
<path d="M9.98263 14.9641C10.0533 14.9641 10.1106 14.9068 10.1106 14.8361C10.1106 14.7654 10.0533 14.7081 9.98263 14.7081C9.91193 14.7081 9.85461 14.7654 9.85461 14.8361C9.85461 14.9068 9.91193 14.9641 9.98263 14.9641Z" fill="#FFE15A"/>
<path d="M10.5707 15.0361C10.6414 15.0361 10.6987 14.9788 10.6987 14.9081C10.6987 14.8374 10.6414 14.7801 10.5707 14.7801C10.5 14.7801 10.4427 14.8374 10.4427 14.9081C10.4427 14.9788 10.5 15.0361 10.5707 15.0361Z" fill="#FFE15A"/>
<path d="M9.64462 13.9973C9.71532 13.9973 9.77263 13.94 9.77263 13.8693C9.77263 13.7986 9.71532 13.7413 9.64462 13.7413C9.57392 13.7413 9.5166 13.7986 9.5166 13.8693C9.5166 13.94 9.57392 13.9973 9.64462 13.9973Z" fill="#FFE15A"/>
<path d="M8.83029 13.0344C8.90099 13.0344 8.9583 12.9771 8.9583 12.9064C8.9583 12.8357 8.90099 12.7784 8.83029 12.7784C8.75959 12.7784 8.70227 12.8357 8.70227 12.9064C8.70227 12.9771 8.75959 13.0344 8.83029 13.0344Z" fill="#FFE15A"/>
<path d="M9.39865 12.3821C9.46935 12.3821 9.52666 12.3248 9.52666 12.2541C9.52666 12.1834 9.46935 12.126 9.39865 12.126C9.32794 12.126 9.27063 12.1834 9.27063 12.2541C9.27063 12.3248 9.32794 12.3821 9.39865 12.3821Z" fill="#FFE15A"/>
<path d="M9.18283 11.7141C9.25353 11.7141 9.31084 11.6568 9.31084 11.5861C9.31084 11.5154 9.25353 11.4581 9.18283 11.4581C9.11212 11.4581 9.05481 11.5154 9.05481 11.5861C9.05481 11.6568 9.11212 11.7141 9.18283 11.7141Z" fill="#FFE15A"/>
<path d="M12.0435 15.3744L12.0381 15.2515C12.0547 15.2508 13.7046 15.1659 14.4995 14.0761C14.96 13.4449 15.0499 12.5986 14.7669 11.5607L14.8854 11.5283C15.1788 12.6043 15.0823 13.4861 14.5984 14.149C13.7681 15.2867 12.1136 15.3714 12.0435 15.3744Z" fill="#B46446"/>
<path d="M14.8857 11.0505C14.9673 11.263 14.9487 11.4855 14.8542 11.6542C14.6711 11.5921 14.5084 11.4392 14.4268 11.2267C14.3452 11.0142 14.3638 10.7917 14.4583 10.623C14.6414 10.6852 14.8041 10.838 14.8857 11.0505Z" fill="#41AA5A"/>
<path d="M13.8494 13.9881C13.94 14.1375 13.9637 14.3378 13.8966 14.5322C13.834 14.7139 13.7047 14.8479 13.5549 14.9156C13.7004 14.8393 13.8855 14.8202 14.0672 14.8828C14.2617 14.9499 14.4047 15.092 14.4666 15.2554C14.3172 15.3459 14.117 15.3697 13.9225 15.3026C13.728 15.2356 13.585 15.0934 13.5231 14.9301C13.5232 14.93 13.5233 14.93 13.5233 14.93C13.4336 14.7807 13.4101 14.5812 13.4768 14.3875C13.5439 14.193 13.6861 14.0499 13.8494 13.9881Z" fill="#41AA5A"/>
<path d="M14.2038 13.4463C14.3434 13.5511 14.4402 13.7281 14.4505 13.9336C14.4601 14.1255 14.3901 14.2981 14.2763 14.4166C14.383 14.2916 14.5476 14.2048 14.7394 14.1952C14.9448 14.1849 15.1306 14.2635 15.2489 14.392C15.1441 14.5317 14.9671 14.6285 14.7617 14.6387C14.5563 14.6491 14.3705 14.5704 14.2522 14.4419C14.2522 14.4419 14.2523 14.4418 14.2523 14.4418C14.1134 14.3368 14.0171 14.1604 14.0069 13.9557C13.9966 13.7503 14.0752 13.5645 14.2038 13.4463Z" fill="#41AA5A"/>
<path d="M14.3573 12.835C14.5263 12.8794 14.6827 13.0068 14.7697 13.193C14.8511 13.3672 14.8514 13.5534 14.7907 13.7061C14.8423 13.5501 14.962 13.4076 15.1361 13.3263C15.3225 13.2392 15.5241 13.2418 15.6822 13.3162C15.6378 13.4852 15.5104 13.6416 15.3241 13.7286C15.1377 13.8156 14.9361 13.813 14.778 13.7386C14.778 13.7386 14.7781 13.7385 14.7781 13.7384C14.6098 13.6936 14.4542 13.5666 14.3675 13.381C14.2803 13.1948 14.2829 12.993 14.3573 12.835Z" fill="#41AA5A"/>
<path d="M14.2705 12.2282C14.4444 12.2109 14.6353 12.2759 14.7818 12.4202C14.9187 12.5551 14.984 12.7295 14.9803 12.8938C14.9743 12.7296 15.0369 12.5543 15.1717 12.4174C15.3161 12.2709 15.506 12.2031 15.6801 12.2178C15.6974 12.3916 15.6325 12.5825 15.4881 12.7291C15.3437 12.8757 15.1538 12.9434 14.9797 12.9287C14.9797 12.9287 14.9797 12.9286 14.9797 12.9285C14.8063 12.9451 14.6162 12.8804 14.4702 12.7365C14.3236 12.5922 14.2558 12.4022 14.2705 12.2282Z" fill="#41AA5A"/>
<path d="M14.1465 11.6507C14.315 11.6049 14.5141 11.6373 14.6825 11.7554C14.8399 11.8658 14.933 12.027 14.9566 12.1897C14.9235 12.0287 14.9562 11.8456 15.0665 11.6882C15.1846 11.5199 15.3607 11.4216 15.5348 11.4072C15.5807 11.5758 15.5482 11.7749 15.4301 11.9432C15.312 12.1116 15.1359 12.2099 14.9618 12.2243C14.9618 12.2242 14.9618 12.2241 14.9618 12.2241C14.7936 12.2692 14.5953 12.2367 14.4275 12.119C14.2591 12.0009 14.1608 11.8248 14.1465 11.6507Z" fill="#41AA5A"/>
<path d="M14.0987 14.9641C14.1694 14.9641 14.2267 14.9068 14.2267 14.8361C14.2267 14.7654 14.1694 14.7081 14.0987 14.7081C14.028 14.7081 13.9707 14.7654 13.9707 14.8361C13.9707 14.9068 14.028 14.9641 14.0987 14.9641Z" fill="#FFE15A"/>
<path d="M13.5099 15.0361C13.5806 15.0361 13.6379 14.9788 13.6379 14.9081C13.6379 14.8374 13.5806 14.7801 13.5099 14.7801C13.4391 14.7801 13.3818 14.8374 13.3818 14.9081C13.3818 14.9788 13.4391 15.0361 13.5099 15.0361Z" fill="#FFE15A"/>
<path d="M14.4365 13.9973C14.5072 13.9973 14.5645 13.94 14.5645 13.8693C14.5645 13.7986 14.5072 13.7413 14.4365 13.7413C14.3658 13.7413 14.3085 13.7986 14.3085 13.8693C14.3085 13.94 14.3658 13.9973 14.4365 13.9973Z" fill="#FFE15A"/>
<path d="M15.2511 13.0344C15.3218 13.0344 15.3791 12.9771 15.3791 12.9064C15.3791 12.8357 15.3218 12.7784 15.2511 12.7784C15.1804 12.7784 15.123 12.8357 15.123 12.9064C15.123 12.9771 15.1804 13.0344 15.2511 13.0344Z" fill="#FFE15A"/>
<path d="M14.6827 12.3821C14.7534 12.3821 14.8107 12.3248 14.8107 12.2541C14.8107 12.1834 14.7534 12.126 14.6827 12.126C14.612 12.126 14.5547 12.1834 14.5547 12.2541C14.5547 12.3248 14.612 12.3821 14.6827 12.3821Z" fill="#FFE15A"/>
<path d="M14.8985 11.7141C14.9692 11.7141 15.0265 11.6568 15.0265 11.5861C15.0265 11.5154 14.9692 11.4581 14.8985 11.4581C14.8278 11.4581 14.7705 11.5154 14.7705 11.5861C14.7705 11.6568 14.8278 11.7141 14.8985 11.7141Z" fill="#FFE15A"/>
<path d="M12.7619 11.0742H11.2935C10.8364 11.0742 10.4659 11.4447 10.4659 11.9018V13.1953C10.4659 13.6524 10.8364 14.0229 11.2935 14.0229H12.7619C13.2189 14.0229 13.5895 13.6524 13.5895 13.1953V11.9018C13.5895 11.4447 13.219 11.0742 12.7619 11.0742Z" fill="#8CD7FF"/>
<path d="M12.2692 12.2002V12.3641H12.1054V12.2002H11.9792V12.3641H11.8154V12.2002H11.7129V12.5279L11.7948 12.6317V13.8386H12.2863V12.6317L12.3682 12.5279V12.2002H12.2692Z" fill="#F5F5F5"/>
<path d="M12.0649 11.6811C12.146 11.6418 12.1673 11.8074 12.1673 11.8074C12.338 11.722 12.2935 11.5835 12.2527 11.5173C12.1981 11.4285 11.9796 11.3944 11.8875 11.5787C11.7953 11.7631 12.0445 12.1283 12.0445 12.1283C12.0581 12.0156 11.9591 11.7323 12.0649 11.6811Z" fill="#F5F5F5"/>
<path d="M13.111 12.5049V12.6688H12.9472V12.5049H12.821V12.6688H12.6572V12.5049H12.5547V12.8326L12.6366 12.9364V14.1433H13.1282V12.9364L13.21 12.8326V12.5049H13.111Z" fill="#F5F5F5"/>
<path d="M12.9069 11.9865C12.9879 11.9473 13.0093 12.1129 13.0093 12.1129C13.1799 12.0275 13.1354 11.889 13.0946 11.8228C13.04 11.734 12.8216 11.6998 12.7294 11.8842C12.6373 12.0686 12.8865 12.4338 12.8865 12.4338C12.9001 12.3211 12.8011 12.0378 12.9069 11.9865Z" fill="#F5F5F5"/>
<path d="M11.4275 12.5049V12.6688H11.2636V12.5049H11.1374V12.6688H10.9736V12.5049H10.8711V12.8326L10.953 12.9364V14.1433H11.4446V12.9364L11.5265 12.8326V12.5049H11.4275Z" fill="#F5F5F5"/>
<path d="M11.2223 11.9865C11.3033 11.9473 11.3247 12.1129 11.3247 12.1129C11.4954 12.0275 11.4508 11.889 11.4101 11.8228C11.3555 11.734 11.137 11.6998 11.0449 11.8842C10.9527 12.0686 11.2019 12.4338 11.2019 12.4338C11.2155 12.3211 11.1165 12.0378 11.2223 11.9865Z" fill="#F5F5F5"/>
<path d="M13.3858 13.925C13.2764 13.8709 13.1549 13.8377 13.0246 13.8377C12.885 13.8377 12.7555 13.8759 12.6404 13.9375C12.4908 13.7763 12.2789 13.6738 12.0415 13.6738C11.8042 13.6738 11.5923 13.7763 11.4427 13.9375C11.3276 13.8759 11.1981 13.8377 11.0585 13.8377C10.9281 13.8377 10.8066 13.8709 10.6973 13.925C10.9312 14.354 11.3791 15.0473 12.0415 15.3122C12.704 15.0473 13.1519 14.354 13.3858 13.925Z" fill="#6EC86E"/>
<path d="M12.0352 8.43554L12.0429 8.4317C12.0429 8.4317 12.0403 8.43234 12.0352 8.43554Z" fill="#FFE15A"/>
<path d="M12.042 8.4317L12.0498 8.43554C12.0445 8.43234 12.042 8.4317 12.042 8.4317Z" fill="#FFE15A"/>
<path d="M13.6139 9.1328C13.5678 8.8666 13.2247 8.82047 12.8305 8.79488C12.4363 8.76929 12.2673 8.54401 12.2673 8.54401H11.8167C11.8167 8.54401 11.6477 8.76929 11.2535 8.79488C10.8593 8.82047 10.5162 8.86655 10.4701 9.1328C10.4241 9.399 10.762 9.81886 10.762 9.81886L11.0589 9.57825C11.0589 9.57825 10.6954 9.23011 10.8746 9.1021C11.0515 8.97568 11.5675 9.06324 11.7973 8.75977C11.7876 8.82319 11.7909 8.90147 11.8303 8.99794C11.9054 9.1823 11.8781 9.41438 11.8781 9.41438H12.0419H12.2058C12.2058 9.41438 12.1785 9.18225 12.2536 8.99794C12.293 8.90147 12.2964 8.8231 12.2866 8.75977C12.5165 9.06324 13.0324 8.97568 13.2093 9.1021C13.3885 9.23011 13.025 9.57825 13.025 9.57825L13.3219 9.81886C13.322 9.81886 13.6599 9.399 13.6139 9.1328Z" fill="#FFE15A"/>
<path d="M12.2092 7.6224H12.1238V7.53024C12.1238 7.48496 12.0872 7.4483 12.0419 7.4483C11.9966 7.4483 11.9599 7.48496 11.9599 7.53024V7.6224H11.8712C11.8259 7.6224 11.7892 7.65905 11.7892 7.70433C11.7892 7.74961 11.8259 7.78627 11.8712 7.78627H11.9599V8.02177C11.9599 8.06705 11.9966 8.10371 12.0419 8.10371C12.0872 8.10371 12.1238 8.06705 12.1238 8.02177V7.78627H12.2092C12.2544 7.78627 12.2911 7.74961 12.2911 7.70433C12.2911 7.65905 12.2544 7.6224 12.2092 7.6224Z" fill="#FFE15A"/>
<path d="M12.041 8.2672C12.1315 8.2672 12.2048 8.19383 12.2048 8.10333C12.2048 8.01282 12.1315 7.93945 12.041 7.93945C11.9504 7.93945 11.8771 8.01282 11.8771 8.10333C11.8771 8.19383 11.9504 8.2672 12.041 8.2672Z" fill="#FFF0E1"/>
<path d="M10.8671 11.4012C10.9331 11.4341 11.0102 11.4626 11.089 11.4626C11.3604 11.4626 11.4935 11.3091 11.4935 11.0377C11.4935 10.7662 11.3297 10.5615 11.0583 10.5615C11.0583 10.5615 11.0277 10.562 10.9786 10.5695C10.9681 10.5712 10.9576 10.5728 10.9473 10.5752C10.6864 10.6249 10.0415 10.8654 9.91138 12.0361C9.72955 13.6726 11.0583 15.149 12.0413 15.4767V15.3128C12.0413 15.3129 9.72022 13.5379 10.8671 11.4012Z" fill="#FFC75A"/>
<path d="M11.0585 10.7256L12.0415 11.0533L11.0585 11.3809V10.7256Z" fill="#FFC75A"/>
<path d="M13.025 11.3808L12.042 11.0531L13.025 10.7254V11.3808Z" fill="#FFE15A"/>
<path d="M10.0742 12.0543C10.1916 10.9978 10.7453 10.7806 10.9839 10.735C10.9891 10.7338 10.9944 10.733 11.0034 10.7316C11.0334 10.727 11.0541 10.7257 11.0606 10.7254C11.2402 10.7267 11.3586 10.862 11.3586 11.0258C11.3586 11.2065 11.2528 11.275 11.147 11.2784C11.147 11.2784 11.2324 11.1009 11.0583 11.0531C10.9408 11.0208 10.7921 11.1146 10.8057 11.2852C10.8153 11.4051 10.9292 11.5207 11.0583 11.5207C11.3297 11.5207 11.5498 11.3245 11.5498 11.0531C11.5498 10.7816 11.3297 10.5615 11.0583 10.5615C11.0583 10.5615 11.0277 10.562 10.9786 10.5695C10.9681 10.5712 10.9576 10.5728 10.9473 10.5752C10.6864 10.6249 10.0415 10.8654 9.91138 12.0361C9.72955 13.6726 11.0583 15.149 12.0413 15.4767V15.3128C12.0413 15.3128 11.6932 15.1387 11.4552 14.9696C10.7197 14.4473 9.94147 13.2491 10.0742 12.0543Z" fill="#FFE15A"/>
<path d="M13.2152 11.4012C13.1492 11.4341 13.0722 11.4626 12.9934 11.4626C12.7219 11.4626 12.5889 11.3091 12.5889 11.0377C12.5889 10.7662 12.7527 10.5615 13.0241 10.5615C13.0241 10.5615 13.0547 10.562 13.1037 10.5695C13.1143 10.5712 13.1247 10.5728 13.135 10.5752C13.396 10.6249 14.0409 10.8654 14.171 12.0361C14.3528 13.6726 13.0241 15.149 12.041 15.4767V15.3128C12.041 15.3129 14.3621 13.5379 13.2152 11.4012Z" fill="#FFC75A"/>
<path d="M13.024 10.7253L12.041 11.053L13.024 11.3807V10.7253Z" fill="#FFC75A"/>
<path d="M14.0081 12.0543C13.8907 10.9978 13.337 10.7806 13.0984 10.735C13.0932 10.7338 13.0879 10.733 13.0789 10.7316C13.0489 10.727 13.0282 10.7257 13.0217 10.7254C12.8421 10.7267 12.7237 10.862 12.7237 11.0258C12.7237 11.2065 12.8295 11.275 12.9353 11.2784C12.9353 11.2784 12.8499 11.1009 13.024 11.0531C13.1415 11.0208 13.2902 11.1146 13.2766 11.2852C13.267 11.4051 13.1531 11.5207 13.024 11.5207C12.7526 11.5207 12.5325 11.3245 12.5325 11.0531C12.5325 10.7816 12.7526 10.5615 13.024 10.5615C13.024 10.5615 13.0547 10.562 13.1037 10.5695C13.1142 10.5712 13.1247 10.5728 13.135 10.5752C13.3959 10.6249 14.0409 10.8654 14.1709 12.0361C14.3528 13.6726 13.024 15.149 12.041 15.4767V15.3128C12.041 15.3128 12.3891 15.1387 12.6272 14.9696C13.3626 14.4473 14.1409 13.2491 14.0081 12.0543Z" fill="#FFE15A"/>
<path d="M12.0408 11.2173C12.1313 11.2173 12.2047 11.144 12.2047 11.0535C12.2047 10.963 12.1313 10.8896 12.0408 10.8896C11.9503 10.8896 11.877 10.963 11.877 11.0535C11.877 11.144 11.9503 11.2173 12.0408 11.2173Z" fill="#FFE15A"/>
<path d="M13.2107 9.73712C13.2542 9.62448 13.1954 9.47344 13.1954 9.47344C13.0443 9.46833 12.9394 9.5784 12.9394 9.5784C12.9522 9.44274 12.8933 9.31984 12.8933 9.31984C12.6987 9.34285 12.6347 9.45812 12.6347 9.45812C12.6245 9.24563 12.4964 9.15859 12.4964 9.15859C12.3275 9.20977 12.2763 9.39409 12.2763 9.39409C12.2507 9.18418 12.0408 9.08691 12.0408 9.08691C12.0408 9.08691 11.8309 9.18423 11.8053 9.39409C11.8053 9.39409 11.7541 9.20973 11.5852 9.15859C11.5852 9.15859 11.4572 9.24563 11.4469 9.45812C11.4469 9.45812 11.3829 9.34294 11.1884 9.31984C11.1884 9.31984 11.1295 9.44274 11.1423 9.5784C11.1423 9.5784 11.0373 9.46833 10.8863 9.47344C10.8863 9.47344 10.8274 9.62448 10.8709 9.73712C10.8709 9.73712 10.6994 9.6834 10.5586 9.76524C10.5586 9.76524 10.8167 9.86508 10.9027 9.98794H13.179C13.265 9.86504 13.5231 9.76524 13.5231 9.76524C13.3823 9.68335 13.2107 9.73712 13.2107 9.73712Z" fill="#FFC75A"/>
<path d="M13.1796 9.98778C13.1796 10.0615 13.0074 10.2894 13.0074 10.2894C13.0074 10.2894 12.4489 10.3671 12.0415 10.3671C11.6314 10.3671 11.0717 10.2872 11.0717 10.2872C11.0717 10.2872 10.9033 10.0606 10.9033 9.98768C10.9033 9.77815 11.4129 9.60828 12.0414 9.60828C12.67 9.60832 13.1796 9.77825 13.1796 9.98778Z" fill="#FFE15A"/>
<path d="M12.0409 10.5613C12.5839 10.5613 13.0242 10.4146 13.0242 10.2337C13.0242 10.0527 12.5839 9.90601 12.0409 9.90601C11.4978 9.90601 11.0576 10.0527 11.0576 10.2337C11.0576 10.4146 11.4978 10.5613 12.0409 10.5613Z" fill="#FFC75A"/>
<path d="M12.2816 8.41593C12.2816 8.30839 12.2014 8.17185 12.041 8.26743C11.8805 8.17185 11.8004 8.30839 11.8004 8.41593C11.8004 8.52346 11.6775 8.53883 11.6621 8.52857C11.6621 8.52857 11.7645 8.66169 11.8822 8.57464C11.8822 8.57464 11.9453 8.6668 12.0409 8.6668C12.1365 8.6668 12.1997 8.57464 12.1997 8.57464C12.3175 8.66169 12.4198 8.52857 12.4198 8.52857C12.4045 8.53878 12.2816 8.52341 12.2816 8.41593Z" fill="#FFC75A"/>
<path d="M11.7147 16.3573C11.7055 16.3573 11.6962 16.3553 11.6873 16.3508C11.6569 16.3357 11.6446 16.2988 11.6598 16.2684L11.9875 15.613C12.0027 15.5829 12.0396 15.5703 12.0699 15.5856C12.1003 15.6007 12.1126 15.6376 12.0974 15.668L11.7698 16.3234C11.7589 16.3449 11.7373 16.3573 11.7147 16.3573Z" fill="#B46446"/>
<path d="M12.3697 16.3575C12.3471 16.3575 12.3255 16.345 12.3146 16.3235L11.987 15.6682C11.9718 15.6377 11.9841 15.6008 12.0145 15.5858C12.0448 15.5702 12.0817 15.5829 12.0969 15.6131L12.4246 16.2685C12.4397 16.2989 12.4275 16.3359 12.397 16.3509C12.3882 16.3554 12.3789 16.3575 12.3697 16.3575Z" fill="#B46446"/>
<path d="M13.5164 15.7836C12.5453 16.0007 11.5383 16.0007 10.5673 15.7836C10.5673 15.6198 10.5673 15.3131 10.5673 15.1493C11.5383 15.3664 12.5453 15.3664 13.5164 15.1493C13.5164 15.3132 13.5164 15.6199 13.5164 15.7836Z" fill="#F5F5F5"/>
<path d="M11.3796 15.5449C10.7526 15.6658 10.11 15.699 9.47055 15.6393C9.48133 15.7238 9.98697 15.9748 9.98697 15.9748C9.98697 15.9748 9.54082 16.1905 9.55075 16.2686C10.1628 16.3257 10.7781 16.2985 11.3796 16.19V15.5449Z" fill="#F5F5F5"/>
<path d="M12.7059 15.5449C13.3329 15.6658 13.9756 15.699 14.615 15.6393C14.6042 15.7238 14.0986 15.9748 14.0986 15.9748C14.0986 15.9748 14.5447 16.1905 14.5348 16.2686C13.9227 16.3257 13.3074 16.2985 12.7059 16.19V15.5449Z" fill="#F5F5F5"/>
</svg>
